HIERARCHY
ROOT Hips
{
	OFFSET 26.931601 11.656584 98.811096
	CHANNELS 6 Xposition Yposition Zposition Xrotation Yrotation Zrotation
	JOINT spine
	{
		OFFSET 0.000000 -0.477352 8.301041
		CHANNELS 3 Xrotation Yrotation Zrotation
		JOINT spine1
		{
			OFFSET 0.000000 -0.000002 10.456497
			CHANNELS 3 Xrotation Yrotation Zrotation
			JOINT spine2
			{
				OFFSET 0.000000 -0.000002 10.019203
				CHANNELS 3 Xrotation Yrotation Zrotation
				JOINT Neck
				{
					OFFSET 0.000000 -1.226414 25.723503
					CHANNELS 3 Xrotation Yrotation Zrotation
					JOINT Head
					{
						OFFSET 0.000000 -0.000002 7.771744
						CHANNELS 3 Xrotation Yrotation Zrotation
						End Site
						{
							OFFSET 0.000000 6.203938 18.811996
						}
					}
				}
				JOINT RightShoulder
				{
					OFFSET -4.218800 0.587437 10.820000
					CHANNELS 3 Xrotation Yrotation Zrotation
					JOINT RightArm
					{
						OFFSET 0.000000 -0.000002 14.191406
						CHANNELS 3 Xrotation Yrotation Zrotation
						JOINT RightArmRoll
						{
							OFFSET 0.000000 -0.000001 7.164078
							CHANNELS 3 Xrotation Yrotation Zrotation
							JOINT RightForeArm
							{
								OFFSET 0.000000 -0.000004 20.866501
								CHANNELS 3 Xrotation Yrotation Zrotation
								JOINT RightForeArmRoll
								{
									OFFSET 0.000000 -0.000001 8.039215
									CHANNELS 3 Xrotation Yrotation Zrotation
									JOINT RightHand
									{
										OFFSET 0.000000 -0.000003 16.132996
										CHANNELS 3 Xrotation Yrotation Zrotation
										End Site
										{
											OFFSET 0.000000 0.000000 0.100006
										}
									}
								}
							}
						}
					}
				}
				JOINT LeftShoulder
				{
					OFFSET 4.218800 0.587437 10.820000
					CHANNELS 3 Xrotation Yrotation Zrotation
					JOINT LeftArm
					{
						OFFSET 0.000000 -0.000002 14.191406
						CHANNELS 3 Xrotation Yrotation Zrotation
						JOINT LeftArmRoll
						{
							OFFSET 0.000000 -0.000001 7.164093
							CHANNELS 3 Xrotation Yrotation Zrotation
							JOINT LeftForeArm
							{
								OFFSET 0.000000 -0.000004 20.866501
								CHANNELS 3 Xrotation Yrotation Zrotation
								JOINT LeftForeArmRoll
								{
									OFFSET 0.000000 -0.000001 8.039215
									CHANNELS 3 Xrotation Yrotation Zrotation
									JOINT LeftHand
									{
										OFFSET 0.000000 -0.000003 16.132996
										CHANNELS 3 Xrotation Yrotation Zrotation
										End Site
										{
											OFFSET 0.000000 0.000000 0.100006
										}
									}
								}
							}
						}
					}
				}
			}
		}
	}
	JOINT RightUpLeg
	{
		OFFSET -7.357729 1.131820 -1.349213
		CHANNELS 3 Xrotation Yrotation Zrotation
		JOINT RightUpLegRoll
		{
			OFFSET 0.000000 -0.000003 18.916801
			CHANNELS 3 Xrotation Yrotation Zrotation
			JOINT RightLeg
			{
				OFFSET 0.000000 0.000004 -23.425598
				CHANNELS 3 Xrotation Yrotation Zrotation
				JOINT RightLegRoll
				{
					OFFSET 0.000000 -0.000004 23.502296
					CHANNELS 3 Xrotation Yrotation Zrotation
					JOINT RightFoot
					{
						OFFSET 0.000000 -0.000003 19.561707
						CHANNELS 3 Xrotation Yrotation Zrotation
						JOINT RightToeBase
						{
							OFFSET 0.000000 -0.000003 16.352600
							CHANNELS 3 Xrotation Yrotation Zrotation
							End Site
							{
								OFFSET 0.006931 0.912836 7.919434
							}
						}
					}
				}
			}
		}
	}
	JOINT LeftUpLeg
	{
		OFFSET 7.357729 1.131820 -1.349213
		CHANNELS 3 Xrotation Yrotation Zrotation
		JOINT LeftUpLegRoll
		{
			OFFSET 0.000000 -0.000003 18.916901
			CHANNELS 3 Xrotation Yrotation Zrotation
			JOINT LeftLeg
			{
				OFFSET 0.000000 -0.000004 23.425507
				CHANNELS 3 Xrotation Yrotation Zrotation
				JOINT LeftLegRoll
				{
					OFFSET 0.000000 -0.000004 23.719498
					CHANNELS 3 Xrotation Yrotation Zrotation
					JOINT LeftFoot
					{
						OFFSET 0.000000 -0.000003 19.344406
						CHANNELS 3 Xrotation Yrotation Zrotation
						JOINT LeftToeBase
						{
							OFFSET 0.000000 -0.000003 16.352600
							CHANNELS 3 Xrotation Yrotation Zrotation
							End Site
							{
								OFFSET -0.031063 0.912836 7.919434
							}
						}
					}
				}
			}
		}
	}
}
MOTION
Frames: 8
Frame Time: 0.041667
27.073601 2.061621 120.647995 -1.959852 -0.637271 4.929654 -0.540875 -0.206626 0.340766 2.922354 -0.406604 0.698278 4.567390 -0.398204 0.703097 10.634077 1.204814 -3.402599 -7.323845 0.856741 -3.512231 -7.613375 -66.719473 -9.550327 -57.354096 -104.126548 -32.736588 -0.000000 0.000000 -0.000001 0.159297 -13.556251 0.163298 -0.000001 0.000017 -3.007019 -5.000183 -7.999220 0.000098 8.994180 64.332821 -9.515421 -44.319656 101.261782 29.825216 -0.000000 -0.000000 -0.000001 13.011451 12.210659 -0.865286 -0.000003 0.000001 3.000002 -5.000230 7.998862 -0.000138 -0.959036 -172.680023 3.694256 -179.999991 0.000005 -1.278006 165.494691 -3.610461 -1.268388 -0.000002 0.000001 0.193896 67.640893 6.908623 2.172975 25.456860 -7.355622 -0.000011 -6.774880 167.891610 -3.721274 -0.000004 -0.000003 -1.269710 -19.915397 3.211503 1.486919 -0.000002 -0.000003 -0.293399 68.167091 -6.919247 -2.119362 25.456955 7.355624 -0.000006 
27.097599 2.098730 120.637985 -1.944393 -0.642752 4.922800 -0.547565 -0.203980 0.339028 2.908952 -0.401433 0.694284 4.553988 -0.393068 0.699040 10.743096 1.178081 -3.407611 -7.370956 0.843570 -3.513339 -7.620847 -66.732191 -9.559660 -57.384169 -104.083122 -32.827457 0.000000 -0.000000 0.000001 0.224424 -13.616902 0.174151 -0.000001 0.000017 -3.006771 -5.000183 -7.999220 0.000098 8.974130 64.320561 -9.494901 -44.317901 101.226470 29.851946 0.000000 0.000003 0.000001 13.082785 12.229696 -0.875597 -0.000002 0.000001 3.000001 -5.000230 7.998862 -0.000137 -0.899420 -172.690883 3.658624 -179.999991 0.000005 -1.275997 165.669763 -3.585185 -1.253186 -0.000002 0.000001 0.190174 67.637437 6.908968 2.171861 25.456858 -7.355622 -0.000012 -6.771124 167.898467 -3.714398 -0.000005 -0.000003 -1.270080 -19.899097 3.208155 1.484791 -0.000002 -0.000002 -0.292951 68.160985 -6.919204 -2.119837 25.456953 7.355622 -0.000007 
27.100901 2.118851 120.621994 -1.927413 -0.649761 4.916574 -0.554722 -0.201058 0.337418 2.894610 -0.395801 0.690223 4.539644 -0.387464 0.694912 10.856739 1.156589 -3.414521 -7.423911 0.822992 -3.516318 -7.628317 -66.744301 -9.568931 -57.404578 -104.039969 -32.903675 -0.000000 0.000001 0.000000 0.299039 -13.672624 0.185009 -0.000002 0.000017 -3.006571 -5.000183 -7.999220 0.000099 8.958155 64.312078 -9.478340 -44.325076 101.186234 29.887812 -0.000000 -0.000001 -0.000001 13.155627 12.249905 -0.886303 -0.000003 0.000001 3.000000 -5.000233 7.998862 -0.000139 -0.836440 -172.699762 3.623836 -179.999991 0.000005 -1.273006 165.854328 -3.559980 -1.237571 -0.000002 0.000000 0.186319 67.633742 6.909255 2.170748 25.456858 -7.355621 -0.000012 -6.766709 167.908303 -3.705973 -0.000005 -0.000003 -1.270410 -19.877594 3.205053 1.482310 -0.000003 -0.000003 -0.292373 68.154988 -6.919211 -2.120214 25.456952 7.355622 -0.000007 
27.122000 2.105988 120.613991 -1.909094 -0.658138 4.910854 -0.562270 -0.197903 0.335927 2.879487 -0.389776 0.686127 4.524531 -0.381463 0.690744 10.974301 1.139667 -3.423092 -7.481935 0.796141 -3.520935 -7.635670 -66.756022 -9.578040 -57.417678 -103.997280 -32.967940 -0.000000 0.000001 0.000001 0.382135 -13.723909 0.195888 -0.000000 0.000017 -3.006422 -5.000185 -7.999220 0.000098 8.945672 64.306894 -9.465163 -44.340355 101.141858 29.931764 -0.000000 -0.000000 0.000000 13.229343 12.271014 -0.897277 -0.000002 0.000002 3.000001 -5.000230 7.998863 -0.000139 -0.770777 -172.706647 3.589933 -179.999991 0.000005 -1.270998 166.046898 -3.535784 -1.221874 -0.000001 0.000001 0.182356 67.629815 6.909485 2.169740 25.456853 -7.355624 -0.000011 -6.761812 167.919108 -3.695986 -0.000004 -0.000004 -1.270711 -19.851491 3.202231 1.479532 -0.000002 -0.000002 -0.291681 68.149196 -6.919189 -2.120574 25.456955 7.355623 -0.000006 
27.108698 2.142200 120.583992 -1.889648 -0.667725 4.905461 -0.570119 -0.194560 0.334543 2.863765 -0.383429 0.682025 4.508797 -0.375138 0.686565 11.094772 1.126610 -3.433071 -7.544268 0.764154 -3.526961 -7.642811 -66.767346 -9.586883 -57.425341 -103.954871 -33.022855 -0.000000 0.000000 0.000001 0.472706 -13.771252 0.206797 -0.000001 0.000017 -3.006301 -5.000184 -7.999219 0.000097 8.936117 64.304462 -9.454822 -44.362618 101.094204 29.982188 -0.000000 0.000001 0.000000 13.303617 12.292646 -0.908426 -0.000002 0.000001 3.000001 -5.000231 7.998861 -0.000140 -0.703091 -172.711551 3.556976 -179.999991 0.000005 -1.269003 166.246067 -3.511602 -1.205933 -0.000002 0.000001 0.178307 67.625689 6.909693 2.168739 25.456853 -7.355621 -0.000012 -6.756534 167.931908 -3.684766 -0.000005 -0.000005 -1.270969 -19.821387 3.199702 1.476512 -0.000003 -0.000003 -0.290894 68.143520 -6.919181 -2.120928 25.456955 7.355624 -0.000006 
27.139999 2.171002 120.557999 -1.869259 -0.678358 4.900241 -0.578190 -0.191067 0.333257 2.847592 -0.376833 0.677945 4.492632 -0.368564 0.682408 11.217561 1.116736 -3.444200 -7.610108 0.728166 -3.534175 -7.649596 -66.778575 -9.595308 -57.429801 -103.912859 -33.070953 -0.000000 0.000001 0.000001 0.569740 -13.814944 0.217733 -0.000000 0.000017 -3.006220 -5.000183 -7.999220 0.000096 8.928911 64.304291 -9.446727 -44.390953 101.044070 30.038110 -0.000000 0.000001 0.000002 13.378224 12.314421 -0.919685 -0.000003 0.000001 3.000001 -5.000230 7.998863 -0.000138 -0.634052 -172.715431 3.524999 -179.999991 0.000004 -1.265998 166.450317 -3.488388 -1.190110 -0.000001 0.000001 0.174196 67.621332 6.909880 2.167751 25.456858 -7.355624 -0.000010 -6.751032 167.945691 -3.672426 -0.000004 -0.000003 -1.271199 -19.787984 3.197482 1.473306 -0.000003 -0.000003 -0.290028 68.137947 -6.919180 -2.121175 25.456953 7.355621 -0.000005 
27.132097 2.190742 120.525986 -1.848125 -0.689881 4.895060 -0.586394 -0.187471 0.332064 2.831160 -0.370061 0.673917 4.476188 -0.361812 0.678296 11.341655 1.109362 -3.456216 -7.678709 0.689312 -3.542345 -7.655994 -66.789954 -9.603298 -57.432014 -103.871092 -33.113833 0.000001 0.000000 0.000001 0.672230 -13.855587 0.228702 0.000000 0.000017 -3.006161 -5.000182 -7.999220 0.000098 8.923518 64.306040 -9.440372 -44.423878 100.992379 30.097737 -0.000000 0.000001 -0.000001 13.452525 12.335986 -0.930899 -0.000004 0.000001 3.000001 -5.000233 7.998862 -0.000138 -0.564325 -172.717357 3.494039 -179.999991 0.000005 -1.264003 166.658036 -3.466094 -1.174479 -0.000002 0.000001 0.170047 67.616762 6.910049 2.166772 25.456858 -7.355624 -0.000011 -6.745396 167.961441 -3.659311 -0.000005 -0.000004 -1.271410 -19.751886 3.195597 1.469968 -0.000003 -0.000002 -0.289106 68.132353 -6.919142 -2.121621 25.456948 7.355626 -0.000005 
27.145000 2.214254 120.499985 -1.826438 -0.702133 4.889761 -0.594651 -0.183812 0.330952 2.814617 -0.363182 0.669967 4.459656 -0.354957 0.674264 11.466259 1.103798 -3.468868 -7.749282 0.648725 -3.551223 -7.661795 -66.801443 -9.610625 -57.434494 -103.829770 -33.154329 -0.000001 0.000000 0.000002 0.779161 -13.893566 0.239703 -0.000001 0.000017 -3.006130 -5.000183 -7.999220 0.000098 8.919374 64.309120 -9.435186 -44.460522 100.939930 30.159834 -0.000000 0.000001 -0.000001 13.526403 12.356949 -0.942002 -0.000001 0.000001 3.000001 -5.000232 7.998862 -0.000138 -0.494584 -172.717275 3.464140 -179.999991 0.000005 -1.261995 166.867860 -3.443753 -1.157887 -0.000001 0.000001 0.165882 67.611988 6.910233 2.165808 25.456860 -7.355623 -0.000011 -6.739803 167.977192 -3.645414 -0.000005 -0.000005 -1.271590 -19.713785 3.194078 1.466569 -0.000003 -0.000002 -0.288141 68.126889 -6.919141 -2.121862 25.456955 7.355620 -0.000005 
